HIERARCHY
ROOT Hips
{
	OFFSET 0.00 0.00 0.00
	CHANNELS 6 Xposition Yposition Zposition Xrotation Yrotation Zrotation
	JOINT RightUpLeg
	{
		OFFSET -4.47808 0.00000 0.00000
		CHANNELS 3 Xrotation Yrotation Zrotation
		JOINT RightLeg
		{
			OFFSET 0.00000 -16.40577 0.00000
			CHANNELS 3 Xrotation Yrotation Zrotation
			JOINT RightFoot
			{
				OFFSET 0.00000 -14.64414 0.00000
				CHANNELS 3 Xrotation Yrotation Zrotation
				JOINT RightToeBase
				{
					OFFSET 0.00000 -1.50274 5.60831
					CHANNELS 3 Xrotation Yrotation Zrotation
					End Site
					{
						OFFSET 0.00000 0.00000 2.95275
					}
				}
			}
		}
	}
	JOINT LeftUpLeg
	{
		OFFSET 4.47808 0.00000 0.00000
		CHANNELS 3 Xrotation Yrotation Zrotation
		JOINT LeftLeg
		{
			OFFSET 0.00000 -16.40577 0.00000
			CHANNELS 3 Xrotation Yrotation Zrotation
			JOINT LeftFoot
			{
				OFFSET 0.00000 -14.64414 0.00000
				CHANNELS 3 Xrotation Yrotation Zrotation
				JOINT LeftToeBase
				{
					OFFSET 0.00000 -1.50274 5.60831
					CHANNELS 3 Xrotation Yrotation Zrotation
					End Site
					{
						OFFSET 0.00000 0.00000 2.95275
					}
				}
			}
		}
	}
	JOINT Spine
	{
		OFFSET 0.00000 6.06821 0.00000
		CHANNELS 3 Xrotation Yrotation Zrotation
		JOINT RightShoulder
		{
			OFFSET 0.00000 10.01392 0.00000
			CHANNELS 3 Xrotation Yrotation Zrotation
			JOINT RightArm
			{
				OFFSET -7.19022 0.00000 0.00000
				CHANNELS 3 Xrotation Yrotation Zrotation
				JOINT RightForeArm
				{
					OFFSET -10.17747 0.00000 0.00000
					CHANNELS 3 Yrotation Zrotation Xrotation
					JOINT RightHand
					{
						OFFSET -8.39211 0.00000 0.00000
						CHANNELS 3 Xrotation Yrotation Zrotation
						End Site
						{
							OFFSET -3.93700 0.00000 0.00000
						}
						JOINT RightHandThumb1
						{
							OFFSET 0.00000 0.00000 0.00000
							CHANNELS 3 Xrotation Zrotation Yrotation
							End Site
							{
								OFFSET 0.00000 0.00000 3.93700
							}
						}
					}
				}
			}
		}
		JOINT LeftShoulder
		{
			OFFSET 0.00000 10.01392 0.00000
			CHANNELS 3 Xrotation Yrotation Zrotation
			JOINT LeftArm
			{
				OFFSET 7.19022 0.00000 0.00000
				CHANNELS 3 Xrotation Yrotation Zrotation
				JOINT LeftForeArm
				{
					OFFSET 10.17747 0.00000 0.00000
					CHANNELS 3 Yrotation Zrotation Xrotation
					JOINT LeftHand
					{
						OFFSET 8.39211 0.00000 0.00000
						CHANNELS 3 Xrotation Yrotation Zrotation
						End Site
						{
							OFFSET 3.93700 0.00000 0.00000
						}
						JOINT LeftHandThumb1
						{
							OFFSET 0.00000 0.00000 0.00000
							CHANNELS 3 Xrotation Zrotation Yrotation
							End Site
							{
								OFFSET 0.00000 0.00000 3.93700
							}
						}
					}
				}
			}
		}
		JOINT Head
		{
			OFFSET 0.00000 15.77748 0.00000
			CHANNELS 3 Xrotation Yrotation Zrotation
			End Site
			{
				OFFSET 0.00000 4.52755 0.00000
			}
		}
	}
}
MOTION
Frames: 23
Frame Time: 0.008333
 -2.3082 33.1040 1.3218 9.6955 -3.5345 3.1643 -1.9295 -4.3033 -1.5250 -0.8901 0.0000 -0.0000 -11.3306 -3.5378 -1.4926 2.0842 -0.0000 -0.0000 -1.3847 3.4065 0.1964 0.6750 0.0000 0.0000 -10.7953 6.1261 -12.7167 9.9943 -0.0000 0.0000 -10.7184 -1.0034 -1.7443 3.8713 -24.5894 -26.1847 -35.0527 -5.3471 38.5928 10.9531 -0.0000 11.1965 -0.7833 7.6433 5.8690 32.8623 0.0000 -24.3270 -7.5548 23.7998 32.4099 -30.6799 8.1806 -34.7481 -0.1504 0.0000 20.1889 0.6957 4.1268 -9.5782 33.1476 -0.0000 26.2537 -7.1513 1.9541 0.4936
 -2.3009 33.1031 1.3231 9.6985 -3.5457 3.1632 -1.9339 -4.3168 -1.5305 -0.8919 0.0000 0.0000 -11.3409 -3.5179 -1.5117 2.0758 0.0000 -0.0000 -1.3885 3.4197 0.1827 0.6915 -0.0000 0.0000 -10.8296 6.1347 -12.7070 10.0163 -0.0000 -0.0000 -10.7304 -0.9913 -1.7434 3.8999 -24.6235 -26.1639 -35.0631 -5.3503 38.6068 10.9648 -0.0000 11.2146 -0.7848 7.6521 5.8734 32.8623 0.0000 -24.3270 -7.5533 23.8068 32.4358 -30.6642 8.1707 -34.7268 -0.1618 0.0000 20.2152 0.6961 4.1177 -9.6036 33.1476 -0.0000 26.2537 -7.1193 1.9672 0.4807
 -2.2940 33.1033 1.3245 9.6967 -3.5619 3.1675 -1.9338 -4.2999 -1.5455 -0.8889 -0.0000 -0.0000 -11.3434 -3.5356 -1.4915 2.1357 0.0000 -0.0000 -1.3815 3.4491 0.1687 0.6878 -0.0000 0.0000 -10.8146 6.1011 -12.6986 9.9843 -0.0000 0.0000 -10.7395 -0.9788 -1.7505 3.9157 -24.6354 -26.1471 -35.0773 -5.3896 38.6184 10.9770 -0.0000 11.2511 -0.7875 7.6795 5.8725 32.8623 0.0000 -24.3270 -7.5241 23.8348 32.4429 -30.6999 8.1740 -34.6943 -0.1845 0.0000 20.2315 0.7012 4.1534 -9.5914 33.1476 -0.0000 26.2537 -7.0809 1.9919 0.4805
 -2.2872 33.1030 1.3260 9.6964 -3.5759 3.1632 -1.9313 -4.2874 -1.5505 -0.8957 -0.0000 -0.0000 -11.3302 -3.5519 -1.4800 2.1464 0.0000 0.0000 -1.3760 3.4505 0.1585 0.6942 -0.0000 -0.0000 -10.8421 6.1252 -12.6983 10.0435 -0.0000 -0.0000 -10.7493 -0.9655 -1.7375 3.9195 -24.6555 -26.1457 -35.0726 -5.4144 38.6304 11.0054 -0.0000 11.2773 -0.7894 7.6684 5.8956 32.8623 0.0000 -24.3270 -7.5343 23.8325 32.4513 -30.6698 8.1578 -34.6620 -0.1776 0.0000 20.2360 0.7005 4.1505 -9.5884 33.1476 -0.0000 26.2537 -7.0494 2.0020 0.4495
 -2.2801 33.1034 1.3268 9.6961 -3.5952 3.1625 -1.9339 -4.2957 -1.5604 -0.8981 -0.0000 0.0000 -11.3273 -3.5369 -1.4167 2.2005 -0.0000 -0.0000 -1.3711 3.4739 0.1496 0.6945 0.0000 -0.0000 -10.8434 6.1050 -12.6968 10.0397 -0.0000 0.0000 -10.7583 -0.9658 -1.7326 3.9356 -24.6603 -26.1207 -35.0678 -5.3983 38.6306 11.0001 -0.0000 11.2493 -0.7813 7.6191 5.8721 32.8623 0.0000 -24.3270 -7.5226 23.8810 32.4600 -30.7016 8.1419 -34.6478 -0.1744 0.0000 20.2515 0.6946 4.1281 -9.5596 33.1476 -0.0000 26.2537 -7.0168 2.0428 0.4384
 -2.2742 33.1037 1.3284 9.6954 -3.6103 3.1582 -1.9315 -4.2756 -1.5680 -0.8974 0.0000 0.0000 -11.3092 -3.5504 -1.4309 2.1026 0.0000 -0.0000 -1.3624 3.4746 0.1469 0.6839 0.0000 0.0000 -10.8376 6.0999 -12.6781 10.0325 0.0000 -0.0000 -10.7741 -0.9613 -1.7205 3.9455 -24.6734 -26.1156 -35.0582 -5.3989 38.6438 11.0020 -0.0000 11.2350 -0.7764 7.6089 5.8437 32.8623 0.0000 -24.3270 -7.4976 23.9058 32.4581 -30.7462 8.1569 -34.6206 -0.1594 0.0000 20.2787 0.6866 4.0846 -9.5500 33.1476 -0.0000 26.2537 -6.9703 2.0802 0.4115
 -2.2681 33.1035 1.3294 9.6970 -3.6316 3.1631 -1.9344 -4.2585 -1.5815 -0.8996 0.0000 0.0000 -11.3121 -3.5485 -1.4407 2.0993 -0.0000 -0.0000 -1.3598 3.4944 0.1320 0.6887 0.0000 -0.0000 -10.8467 6.0916 -12.6698 10.0102 0.0000 -0.0000 -10.7925 -0.9498 -1.7208 3.9225 -24.6685 -26.1181 -35.0216 -5.3969 38.6512 10.9949 -0.0000 11.2366 -0.7787 7.5937 5.8724 32.8623 0.0000 -24.3270 -7.5097 23.9028 32.4782 -30.7431 8.1779 -34.5932 -0.1574 0.0000 20.2701 0.6869 4.0772 -9.5707 33.1476 -0.0000 26.2537 -6.9224 2.1173 0.3934
 -2.2613 33.1039 1.3308 9.6994 -3.6448 3.1703 -1.9327 -4.2430 -1.5983 -0.9139 0.0000 -0.0000 -11.3210 -3.5655 -1.3956 2.2432 0.0000 0.0000 -1.3575 3.4952 0.1140 0.6925 -0.0000 -0.0000 -10.8472 6.0880 -12.6659 9.9854 0.0000 -0.0000 -10.8111 -0.9467 -1.7172 3.9291 -24.6951 -26.1102 -35.0313 -5.3762 38.6676 10.9834 -0.0000 11.2630 -0.7803 7.5980 5.8811 32.8623 0.0000 -24.3270 -7.5189 23.9068 32.4809 -30.7633 8.2083 -34.5625 -0.1603 0.0000 20.2651 0.6882 4.0834 -9.5749 33.1476 -0.0000 26.2537 -6.8832 2.1526 0.3665
 -2.2553 33.1035 1.3317 9.7009 -3.6571 3.1718 -1.9355 -4.2268 -1.6113 -0.9077 -0.0000 -0.0000 -11.3153 -3.5686 -1.4134 2.1778 0.0000 0.0000 -1.3544 3.4857 0.1035 0.6911 -0.0000 -0.0000 -10.8555 6.1032 -12.6619 9.9949 -0.0000 0.0000 -10.8298 -0.9429 -1.7122 3.9313 -24.7041 -26.1080 -35.0374 -5.3992 38.6724 10.9866 -0.0000 11.3078 -0.7906 7.6311 5.9326 32.8623 0.0000 -24.3270 -7.5265 23.9174 32.4955 -30.7801 8.2274 -34.5529 -0.1566 0.0000 20.2518 0.6904 4.0972 -9.5738 33.1476 -0.0000 26.2537 -6.8445 2.1875 0.3540
 -2.2498 33.1037 1.3330 9.6990 -3.6743 3.1746 -1.9346 -4.2023 -1.6236 -0.9045 -0.0000 -0.0000 -11.3099 -3.5909 -1.3954 2.1412 -0.0000 -0.0000 -1.3445 3.4550 0.0929 0.6865 -0.0000 0.0000 -10.8560 6.1365 -12.6513 9.9845 -0.0000 -0.0000 -10.8461 -0.9434 -1.7068 3.9284 -24.7076 -26.1045 -35.0447 -5.4186 38.6790 10.9904 -0.0000 11.3502 -0.8055 7.7312 5.9668 32.8623 0.0000 -24.3270 -7.5244 23.9340 32.5037 -30.8109 8.2660 -34.5379 -0.1601 0.0000 20.2424 0.6939 4.1210 -9.5658 33.1476 -0.0000 26.2537 -6.8020 2.2311 0.3337
 -2.2435 33.1036 1.3338 9.7005 -3.6962 3.1794 -1.9393 -4.1710 -1.6391 -0.9030 0.0000 0.0000 -11.3113 -3.5991 -1.4002 2.1206 0.0000 0.0000 -1.3399 3.4411 0.0785 0.6889 -0.0000 -0.0000 -10.8604 6.1619 -12.6540 9.9698 0.0000 0.0000 -10.8650 -0.9402 -1.6999 3.9349 -24.7120 -26.0966 -35.0626 -5.4342 38.6796 10.9968 -0.0000 11.3825 -0.8056 7.7128 5.9813 32.8623 0.0000 -24.3270 -7.5287 23.9513 32.5125 -30.8264 8.2922 -34.5307 -0.1591 0.0000 20.1986 0.6940 4.1310 -9.5446 33.1476 -0.0000 26.2537 -6.7613 2.2769 0.3192
 -2.2384 33.1037 1.3341 9.6993 -3.7171 3.1788 -1.9421 -4.1360 -1.6461 -0.8994 -0.0000 -0.0000 -11.3186 -3.6239 -1.4040 2.2441 -0.0000 -0.0000 -1.3335 3.4256 0.0707 0.6894 -0.0000 -0.0000 -10.8736 6.1940 -12.6432 10.0045 -0.0000 -0.0000 -10.8763 -0.9425 -1.6880 3.9606 -24.7370 -26.0854 -35.1083 -5.4530 38.6939 11.0086 -0.0000 11.3577 -0.8026 7.7232 5.9512 32.8623 0.0000 -24.3270 -7.5794 23.9399 32.5300 -30.8052 8.3322 -34.5111 -0.1608 0.0000 20.2038 0.6922 4.1221 -9.5403 33.1476 -0.0000 26.2537 -6.7353 2.3293 0.3030
 -2.2328 33.1037 1.3351 9.6938 -3.7383 3.1867 -1.9423 -4.1298 -1.6619 -0.8973 0.0000 -0.0000 -11.3318 -3.6054 -1.3865 2.2508 0.0000 0.0000 -1.3235 3.4252 0.0551 0.6931 -0.0000 -0.0000 -10.8777 6.1987 -12.6234 9.9879 -0.0000 0.0000 -10.8879 -0.9436 -1.6868 3.9613 -24.7280 -26.0879 -35.1192 -5.4986 38.7036 11.0347 -0.0000 11.3723 -0.7987 7.7034 5.9376 32.8623 0.0000 -24.3270 -7.6074 23.9406 32.5468 -30.7936 8.3696 -34.5021 -0.1679 0.0000 20.1813 0.6917 4.1325 -9.5103 33.1476 -0.0000 26.2537 -6.6965 2.3906 0.2887
 -2.2273 33.1035 1.3367 9.6836 -3.7552 3.1861 -1.9331 -4.1020 -1.6739 -0.8914 0.0000 0.0000 -11.3128 -3.6269 -1.3796 2.1892 -0.0000 0.0000 -1.3042 3.3888 0.0468 0.6861 -0.0000 -0.0000 -10.8813 6.2439 -12.6272 9.9971 -0.0000 -0.0000 -10.8912 -0.9368 -1.6749 3.9364 -24.7046 -26.0948 -35.0905 -5.5508 38.6870 11.0659 -0.0000 11.3827 -0.8039 7.7143 5.9674 32.8623 0.0000 -24.3270 -7.5994 23.9638 32.5437 -30.8406 8.4019 -34.5067 -0.1766 0.0000 20.2213 0.6949 4.1561 -9.5003 33.1476 -0.0000 26.2537 -6.6754 2.4377 0.2732
 -2.2213 33.1032 1.3365 9.6721 -3.7867 3.1966 -1.9294 -4.0989 -1.6936 -0.8891 0.0000 -0.0000 -11.3240 -3.6116 -1.3619 2.2282 0.0000 -0.0000 -1.2822 3.3899 0.0257 0.6782 -0.0000 -0.0000 -10.8799 6.2577 -12.5970 10.0026 0.0000 -0.0000 -10.8882 -0.9346 -1.6668 3.9466 -24.7152 -26.0988 -35.1559 -5.5806 38.7116 11.0712 -0.0000 11.4339 -0.7936 7.6978 5.9040 32.8623 0.0000 -24.3270 -7.6287 23.9568 32.5465 -30.8150 8.4459 -34.4935 -0.1834 0.0000 20.2365 0.6909 4.1630 -9.4313 33.1476 -0.0000 26.2537 -6.6585 2.5029 0.2414
 -2.2174 33.1029 1.3374 9.6630 -3.8140 3.1965 -1.9283 -4.0913 -1.7010 -0.8799 -0.0000 0.0000 -11.3261 -3.5898 -1.3559 2.2595 0.0000 0.0000 -1.2697 3.4069 0.0189 0.6868 -0.0000 -0.0000 -10.8918 6.2607 -12.5888 9.9946 -0.0000 -0.0000 -10.8897 -0.9179 -1.6540 3.9756 -24.7452 -26.0936 -35.2059 -5.6083 38.7305 11.0725 -0.0000 11.5005 -0.7909 7.7277 5.8615 32.8623 0.0000 -24.3270 -7.6113 23.9831 32.5349 -30.8419 8.4581 -34.4998 -0.1893 0.0000 20.2553 0.6903 4.1533 -9.4451 33.1476 -0.0000 26.2537 -6.6499 2.5514 0.2212
 -2.2116 33.1028 1.3375 9.6532 -3.8372 3.2048 -1.9280 -4.0835 -1.7188 -0.8713 0.0000 -0.0000 -11.3224 -3.5797 -1.3477 2.1196 0.0000 -0.0000 -1.2536 3.4005 0.0012 0.6864 -0.0000 0.0000 -10.9026 6.2728 -12.5698 10.0352 0.0000 -0.0000 -10.8894 -0.9200 -1.6477 3.9791 -24.7390 -26.0953 -35.1880 -5.5966 38.7363 11.0712 -0.0000 11.5037 -0.7814 7.7266 5.7927 32.8623 0.0000 -24.3270 -7.6318 23.9815 32.5420 -30.7847 8.4722 -34.5061 -0.1939 0.0000 20.2565 0.6900 4.1638 -9.4171 33.1476 -0.0000 26.2537 -6.6397 2.6082 0.1990
 -2.2071 33.1024 1.3375 9.6418 -3.8576 3.2070 -1.9189 -4.0851 -1.7283 -0.8733 -0.0000 -0.0000 -11.3343 -3.5674 -1.3503 2.2147 0.0000 -0.0000 -1.2361 3.3736 -0.0087 0.6838 -0.0000 -0.0000 -10.9054 6.3096 -12.5685 10.0479 -0.0000 -0.0000 -10.8858 -0.9121 -1.6367 3.9858 -24.7473 -26.1005 -35.1893 -5.6046 38.7461 11.0751 -0.0000 11.5206 -0.7712 7.6546 5.7708 32.8623 0.0000 -24.3270 -7.6019 24.0138 32.5189 -30.7949 8.4594 -34.5107 -0.1856 0.0000 20.2545 0.6832 4.1157 -9.4329 33.1476 -0.0000 26.2537 -6.6354 2.6433 0.1745
 -2.2039 33.1023 1.3368 9.6342 -3.8794 3.2048 -1.9199 -4.0921 -1.7315 -0.8679 -0.0000 -0.0000 -11.3209 -3.5493 -1.3090 2.1918 -0.0000 -0.0000 -1.2300 3.3950 -0.0110 0.6928 -0.0000 0.0000 -10.9160 6.3024 -12.5700 10.0198 0.0000 -0.0000 -10.8855 -0.9109 -1.6265 3.9912 -24.7467 -26.0968 -35.1905 -5.6168 38.7503 11.0874 -0.0000 11.5206 -0.7774 7.6302 5.8348 32.8623 0.0000 -24.3270 -7.5928 24.0364 32.5146 -30.7834 8.4612 -34.5215 -0.1954 0.0000 20.2593 0.6866 4.1165 -9.4784 33.1476 -0.0000 26.2537 -6.6353 2.6809 0.1567
 -2.2007 33.1022 1.3373 9.6173 -3.8965 3.2043 -1.9059 -4.0972 -1.7367 -0.8641 -0.0000 -0.0000 -11.3277 -3.5340 -1.3139 2.2193 0.0000 0.0000 -1.2145 3.4024 -0.0170 0.7042 0.0000 -0.0000 -10.9319 6.3158 -12.5651 10.0440 0.0000 0.0000 -10.8790 -0.9035 -1.6178 3.9853 -24.7497 -26.1041 -35.1836 -5.6525 38.7592 11.1203 -0.0000 11.5596 -0.7865 7.6520 5.8865 32.8623 0.0000 -24.3270 -7.5699 24.0600 32.4963 -30.8047 8.4593 -34.5250 -0.1857 0.0000 20.2469 0.6921 4.1407 -9.4973 33.1476 -0.0000 26.2537 -6.6300 2.7147 0.1323
 -2.1960 33.1016 1.3362 9.6099 -3.9177 3.2135 -1.9082 -4.0910 -1.7501 -0.8573 0.0000 -0.0000 -11.3327 -3.5364 -1.3269 2.1841 0.0000 -0.0000 -1.2107 3.4056 -0.0336 0.7176 0.0000 0.0000 -10.9401 6.3257 -12.5676 10.0380 0.0000 0.0000 -10.8784 -0.8841 -1.6188 3.9733 -24.7574 -26.1021 -35.1341 -5.5931 38.7575 11.0764 -0.0000 11.4763 -0.7937 7.6593 5.9341 32.8623 0.0000 -24.3270 -7.5563 24.0728 32.4913 -30.7944 8.4439 -34.5442 -0.1714 0.0000 20.2031 0.6870 4.0962 -9.5290 33.1476 -0.0000 26.2537 -6.6278 2.7246 0.1193
 -2.1918 33.1017 1.3343 9.5991 -3.9319 3.2146 -1.9072 -4.1043 -1.7579 -0.8517 0.0000 0.0000 -11.3435 -3.5119 -1.3406 2.2415 0.0000 0.0000 -1.2140 3.4211 -0.0423 0.7469 -0.0000 0.0000 -10.9593 6.3182 -12.5389 10.0371 -0.0000 0.0000 -10.8749 -0.8792 -1.6126 3.9748 -24.7517 -26.0982 -35.1278 -5.6019 38.7526 11.0673 -0.0000 11.4731 -0.8061 7.6987 5.9957 32.8623 0.0000 -24.3270 -7.5596 24.0675 32.4977 -30.7883 8.4823 -34.5634 -0.1778 0.0000 20.1989 0.6891 4.0988 -9.5514 33.1476 -0.0000 26.2537 -6.6185 2.7472 0.1026
 -2.1877 33.1017 1.3326 9.5916 -3.9497 3.2189 -1.9137 -4.1053 -1.7694 -0.8357 0.0000 -0.0000 -11.3512 -3.5024 -1.3210 2.2503 0.0000 -0.0000 -1.2144 3.4096 -0.0528 0.7658 -0.0000 0.0000 -10.9662 6.3272 -12.5048 9.9753 0.0000 0.0000 -10.8767 -0.8639 -1.6083 3.9562 -24.7448 -26.0969 -35.0990 -5.6068 38.7429 11.0733 -0.0000 11.4767 -0.8172 7.7206 6.0608 32.8623 0.0000 -24.3270 -7.5369 24.1021 32.4782 -30.8212 8.4540 -34.5841 -0.1417 0.0000 20.1541 0.6921 4.1032 -9.5826 33.1476 -0.0000 26.2537 -6.6054 2.7549 0.0837
